<svg width="46" height="47" viewBox="0 0 46 47" fill="none" xmlns="http://www.w3.org/2000/svg">
<rect y="0.25647" width="46" height="46" rx="9" fill="white" fill-opacity="0.05"/>
<rect x="0.5" y="0.75647" width="45" height="45" rx="8.5" stroke="white" stroke-opacity="0.3" stroke-dasharray="3 3"/>
<path d="M22.8615 30.4354C21.9411 30.4354 21.1229 30.2778 20.407 29.9624C19.6953 29.6471 19.1328 29.2082 18.7195 28.6457C18.3061 28.0832 18.0866 27.4333 18.0611 26.6961H20.4645C20.4858 27.0498 20.603 27.3587 20.8161 27.6229C21.0291 27.8829 21.3125 28.0853 21.6662 28.2302C22.0199 28.3751 22.4162 28.4475 22.8551 28.4475C23.3239 28.4475 23.7393 28.3666 24.1016 28.2046C24.4638 28.0384 24.7472 27.8083 24.9517 27.5143C25.1563 27.2202 25.2564 26.8815 25.2521 26.4979C25.2564 26.1016 25.1541 25.7522 24.9453 25.4497C24.7365 25.1471 24.4339 24.9106 24.0376 24.7401C23.6456 24.5697 23.1726 24.4845 22.6186 24.4845H21.4616V22.6563H22.6186C23.0746 22.6563 23.473 22.5775 23.8139 22.4198C24.1591 22.2622 24.4297 22.0406 24.6257 21.755C24.8217 21.4653 24.9176 21.1308 24.9134 20.7515C24.9176 20.3808 24.8345 20.059 24.6641 19.7863C24.4979 19.5093 24.2614 19.2941 23.9545 19.1407C23.652 18.9873 23.2962 18.9106 22.8871 18.9106C22.4865 18.9106 22.1158 18.983 21.7749 19.1279C21.4339 19.2728 21.1591 19.4795 20.9503 19.7479C20.7415 20.0122 20.6307 20.3275 20.6179 20.694H18.3359C18.353 19.961 18.5639 19.3175 18.9688 18.7636C19.3778 18.2053 19.9233 17.7707 20.6051 17.4596C21.2869 17.1443 22.0518 16.9866 22.8999 16.9866C23.7734 16.9866 24.532 17.1506 25.1754 17.4788C25.8232 17.8026 26.3239 18.2394 26.6776 18.7891C27.0313 19.3389 27.2081 19.9461 27.2081 20.6109C27.2124 21.3481 26.995 21.966 26.5561 22.4646C26.1214 22.9631 25.5504 23.2891 24.843 23.4425V23.5448C25.7635 23.6727 26.4688 24.0136 26.9588 24.5675C27.4531 25.1173 27.6982 25.8012 27.6939 26.6194C27.6939 27.3524 27.4851 28.0086 27.0675 28.5881C26.6541 29.1634 26.0831 29.6151 25.3544 29.9433C24.63 30.2714 23.799 30.4354 22.8615 30.4354Z" fill="white"/>
</svg>
