<svg width="46" height="47" viewBox="0 0 46 47" fill="none" xmlns="http://www.w3.org/2000/svg">
<rect y="0.25647" width="46" height="46" rx="9" fill="white" fill-opacity="0.05"/>
<rect x="0.5" y="0.75647" width="45" height="45" rx="8.5" stroke="white" stroke-opacity="0.3" stroke-dasharray="3 3"/>
<path d="M18.1634 30.2565V28.5434L22.7081 24.0881C23.1428 23.6492 23.505 23.2593 23.7947 22.9184C24.0845 22.5775 24.3018 22.2472 24.4467 21.9276C24.5916 21.608 24.6641 21.2671 24.6641 20.9049C24.6641 20.4916 24.5703 20.1379 24.3828 19.8438C24.1953 19.5455 23.9375 19.3154 23.6094 19.1535C23.2812 18.9916 22.9084 18.9106 22.4908 18.9106C22.0604 18.9106 21.6832 19.0001 21.3594 19.1791C21.0355 19.3538 20.7841 19.6031 20.6051 19.9269C20.4304 20.2508 20.343 20.6364 20.343 21.0839H18.0866C18.0866 20.2529 18.2763 19.5306 18.6555 18.917C19.0348 18.3033 19.5568 17.8282 20.2216 17.4916C20.8906 17.1549 21.6577 16.9866 22.5227 16.9866C23.4006 16.9866 24.1719 17.1506 24.8366 17.4788C25.5014 17.8069 26.017 18.2565 26.3835 18.8275C26.7543 19.3985 26.9396 20.0505 26.9396 20.7835C26.9396 21.2735 26.8459 21.755 26.6584 22.2281C26.4709 22.7011 26.1406 23.2252 25.6676 23.8005C25.1989 24.3758 24.5405 25.0725 23.6925 25.8907L21.4361 28.1854V28.2749H27.1378V30.2565H18.1634Z" fill="white"/>
</svg>
